<?xml version="1.0" encoding="UTF-8" standalone="no"?>
<svg
   width="12.769287pt"
   height="11pt"
   viewBox="0 0 17.025716 14.666666"
   version="1.1"
   id="svg986"
   sodipodi:docname="smlWhlBikeh916pt11SVG.svg"
   inkscape:version="1.3.2 (091e20e, 2023-11-25)"
   xmlns:inkscape="http://www.inkscape.org/namespaces/inkscape"
   xmlns:sodipodi="http://sodipodi.sourceforge.net/DTD/sodipodi-0.dtd"
   xmlns="http://www.w3.org/2000/svg"
   xmlns:svg="http://www.w3.org/2000/svg">
  <sodipodi:namedview
     id="namedview988"
     pagecolor="#ffffff"
     bordercolor="#666666"
     borderopacity="1.0"
     inkscape:showpageshadow="2"
     inkscape:pageopacity="0.0"
     inkscape:pagecheckerboard="0"
     inkscape:deskcolor="#d1d1d1"
     showgrid="false"
     inkscape:zoom="13.069724"
     inkscape:cx="6.5418367"
     inkscape:cy="7.6130146"
     inkscape:window-width="912"
     inkscape:window-height="480"
     inkscape:window-x="0"
     inkscape:window-y="23"
     inkscape:window-maximized="0"
     inkscape:current-layer="svg986"
     inkscape:document-units="pt" />
  <defs
     id="defs910">
    <clipPath
       id="clip-0">
      <path
         clip-rule="nonzero"
         d="m 0,9 h 10 v 9.058594 H 0 Z m 0,0"
         id="path859" />
    </clipPath>
    <clipPath
       id="clip-1">
      <path
         clip-rule="nonzero"
         d="M 0,6 H 13 V 18.058594 H 0 Z m 0,0"
         id="path862" />
    </clipPath>
    <clipPath
       id="clip-2">
      <path
         clip-rule="nonzero"
         d="M 0,6 H 13 V 18.058594 H 0 Z m 0,0"
         id="path865" />
    </clipPath>
    <clipPath
       id="clip-3">
      <path
         clip-rule="nonzero"
         d="M 0,7 H 16 V 18.058594 H 0 Z m 0,0"
         id="path868" />
    </clipPath>
    <clipPath
       id="clip-4">
      <path
         clip-rule="nonzero"
         d="M 0,8 H 14 V 18.058594 H 0 Z m 0,0"
         id="path871" />
    </clipPath>
    <clipPath
       id="clip-5">
      <path
         clip-rule="nonzero"
         d="M 0,6 H 14 V 18.058594 H 0 Z m 0,0"
         id="path874" />
    </clipPath>
    <clipPath
       id="clip-6">
      <path
         clip-rule="nonzero"
         d="M 0,6 H 13 V 18.058594 H 0 Z m 0,0"
         id="path877" />
    </clipPath>
    <clipPath
       id="clip-7">
      <path
         clip-rule="nonzero"
         d="M 0,0 H 13 V 18.058594 H 0 Z m 0,0"
         id="path880" />
    </clipPath>
    <clipPath
       id="clip-8">
      <path
         clip-rule="nonzero"
         d="M 0,5 H 18.054688 V 18.058594 H 0 Z m 0,0"
         id="path883" />
    </clipPath>
    <clipPath
       id="clip-9">
      <path
         clip-rule="nonzero"
         d="M 1,6 H 16 V 18.058594 H 1 Z m 0,0"
         id="path886" />
    </clipPath>
    <clipPath
       id="clip-10">
      <path
         clip-rule="nonzero"
         d="M 1,8 H 16 V 18.058594 H 1 Z m 0,0"
         id="path889" />
    </clipPath>
    <clipPath
       id="clip-11">
      <path
         clip-rule="nonzero"
         d="M 3,8 H 17 V 18.058594 H 3 Z m 0,0"
         id="path892" />
    </clipPath>
    <clipPath
       id="clip-12">
      <path
         clip-rule="nonzero"
         d="M 7,0 H 18.054688 V 18.058594 H 7 Z m 0,0"
         id="path895" />
    </clipPath>
    <clipPath
       id="clip-13">
      <path
         clip-rule="nonzero"
         d="M 6,0 H 18.054688 V 13 H 6 Z m 0,0"
         id="path898" />
    </clipPath>
    <clipPath
       id="clip-14">
      <path
         clip-rule="nonzero"
         d="M 6,7 H 18.054688 V 18.058594 H 6 Z m 0,0"
         id="path901" />
    </clipPath>
    <clipPath
       id="clip-15">
      <path
         clip-rule="nonzero"
         d="M 0,7 H 12 V 18.058594 H 0 Z m 0,0"
         id="path904" />
    </clipPath>
    <clipPath
       id="clip-16">
      <path
         clip-rule="nonzero"
         d="M 0,8 H 13 V 18.058594 H 0 Z m 0,0"
         id="path907" />
    </clipPath>
  </defs>
  <g
     id="g1144"
     transform="translate(-0.539876,-5.8642997)">
    <path
       fill-rule="nonzero"
       fill="#000000"
       fill-opacity="1"
       d="m 3.28125,15.765625 c 0,0.199219 -0.179688,0.359375 -0.394531,0.359375 -0.21875,0 -0.394531,-0.160156 -0.394531,-0.359375 0,-0.199219 0.175781,-0.359375 0.394531,-0.359375 0.214843,0 0.394531,0.160156 0.394531,0.359375 z m 0,0"
       id="path912" />
    <g
       clip-path="url(#clip-0)"
       id="g916">
      <path
         fill="none"
         stroke-width="0.24907"
         stroke-linecap="square"
         stroke-linejoin="miter"
         stroke="#000000"
         stroke-opacity="1"
         stroke-miterlimit="10"
         d="m 1.567571,1.311071 c 0,-0.113839 -0.102678,-0.205357 -0.225446,-0.205357 -0.125,0 -0.225446,0.091518 -0.225446,0.205357 0,0.11384 0.100446,0.205358 0.225446,0.205358 0.122768,0 0.225446,-0.091518 0.225446,-0.205358 z m 0,0"
         transform="matrix(1.75,0,0,-1.75,0.538,18.06)"
         id="path914" />
    </g>
    <g
       clip-path="url(#clip-1)"
       id="g920">
      <path
         fill="none"
         stroke-width="0.24907"
         stroke-linecap="square"
         stroke-linejoin="miter"
         stroke="#000000"
         stroke-opacity="1"
         stroke-miterlimit="10"
         d="M 1.382304,1.433839 3.29525,1.739643 2.895696,2.835625 1.413554,1.433839"
         transform="matrix(1.75,0,0,-1.75,0.538,18.06)"
         id="path918" />
    </g>
    <path
       fill-rule="nonzero"
       fill="#000000"
       fill-opacity="1"
       d="M 6,13.125 C 6,13.332031 5.839844,13.5 5.640625,13.5 c -0.195313,0 -0.355469,-0.167969 -0.355469,-0.375 0,-0.207031 0.160156,-0.375 0.355469,-0.375 C 5.839844,12.75 6,12.917969 6,13.125 Z m 0,0"
       id="path922" />
    <g
       clip-path="url(#clip-2)"
       id="g926">
      <path
         fill="none"
         stroke-width="0.24998"
         stroke-linecap="square"
         stroke-linejoin="miter"
         stroke="#000000"
         stroke-opacity="1"
         stroke-miterlimit="10"
         d="m 3.121143,2.82 c 0,-0.118304 -0.091518,-0.214286 -0.205357,-0.214286 -0.111607,0 -0.203125,0.095982 -0.203125,0.214286 0,0.118304 0.091518,0.214286 0.203125,0.214286 0.113839,0 0.205357,-0.095982 0.205357,-0.214286 z m 0,0"
         transform="matrix(1.75,0,0,-1.75,0.538,18.06)"
         id="path924" />
    </g>
    <g
       clip-path="url(#clip-3)"
       id="g930">
      <path
         fill="none"
         stroke-width="0.24907"
         stroke-linecap="square"
         stroke-linejoin="miter"
         stroke="#000000"
         stroke-opacity="1"
         stroke-miterlimit="10"
         d="m 4.859982,1.719554 c 0,-0.399554 -0.321428,-0.725447 -0.716518,-0.725447 -0.395089,0 -0.716518,0.325893 -0.716518,0.725447 0,0.401785 0.321429,0.725446 0.716518,0.725446 0.39509,0 0.716518,-0.323661 0.716518,-0.725446 z m 0,0"
         transform="matrix(1.75,0,0,-1.75,0.538,18.06)"
         id="path928" />
    </g>
    <g
       clip-path="url(#clip-4)"
       id="g934">
      <path
         fill="none"
         stroke-width="0.24907"
         stroke-linecap="round"
         stroke-linejoin="miter"
         stroke="#000000"
         stroke-opacity="1"
         stroke-miterlimit="10"
         d="m 3.223821,1.730714 0.888393,0.00893"
         transform="matrix(1.75,0,0,-1.75,0.538,18.06)"
         id="path932" />
    </g>
    <g
       clip-path="url(#clip-5)"
       id="g938">
      <path
         fill="none"
         stroke-width="0.24907"
         stroke-linecap="square"
         stroke-linejoin="miter"
         stroke="#000000"
         stroke-opacity="1"
         stroke-miterlimit="10"
         d="M 3.723821,1.739643 3.418018,3.181607"
         transform="matrix(1.75,0,0,-1.75,0.538,18.06)"
         id="path936" />
    </g>
    <g
       clip-path="url(#clip-6)"
       id="g942">
      <path
         fill="none"
         stroke-width="0.24907"
         stroke-linecap="square"
         stroke-linejoin="miter"
         stroke="#000000"
         stroke-opacity="1"
         stroke-miterlimit="10"
         d="M 3.469357,2.927143 2.947036,2.804375"
         transform="matrix(1.75,0,0,-1.75,0.538,18.06)"
         id="path940" />
    </g>
    <g
       clip-path="url(#clip-7)"
       id="g946">
      <path
         fill="none"
         stroke-width="0.24907"
         stroke-linecap="square"
         stroke-linejoin="miter"
         stroke="#000000"
         stroke-opacity="1"
         stroke-miterlimit="10"
         d="M 3.418018,3.161518 2.752839,6.362411 Z m 0,0"
         transform="matrix(1.75,0,0,-1.75,0.538,18.06)"
         id="path944" />
    </g>
    <path
       fill-rule="nonzero"
       fill="#000000"
       fill-opacity="1"
       stroke-width="0.24998"
       stroke-linecap="square"
       stroke-linejoin="miter"
       stroke="#000000"
       stroke-opacity="1"
       stroke-miterlimit="10"
       d="m 2.764,6.326696 c 0.455357,0.013393 0.792411,0.064733 0.991071,0.098215 0.185268,0.022321 0.25,0.044643 0.234375,0.111607 C 3.935875,6.732946 3.924714,6.641429 3.500607,6.628036 3.029625,6.643661 2.616679,6.654821 2.460429,6.679375 2.317571,6.715089 2.237214,6.784286 2.165786,6.808839 2.031857,6.802143 2.011768,6.706161 2.036321,6.603482 2.072036,6.480714 2.10775,6.438304 2.210429,6.362411 2.317571,6.304375 2.496143,6.308839 2.772929,6.326696"
       transform="matrix(1.75,0,0,-1.75,0.538,18.06)"
       id="path948" />
    <g
       clip-path="url(#clip-8)"
       id="g952">
      <path
         fill="none"
         stroke-width="0.24907"
         stroke-linecap="square"
         stroke-linejoin="miter"
         stroke="#000000"
         stroke-opacity="1"
         stroke-miterlimit="10"
         d="M 3.478286,2.895893 C 3.955964,3.029821 4.371143,3.16375 4.931411,3.295446 5.685875,3.427143 6.297482,3.433839 6.721589,3.407054 6.98275,3.422679 7.230518,3.404821 7.478286,3.418214"
         transform="matrix(1.75,0,0,-1.75,0.538,18.06)"
         id="path950" />
    </g>
    <g
       clip-path="url(#clip-9)"
       id="g956">
      <path
         fill="none"
         stroke-width="0.24907"
         stroke-linecap="round"
         stroke-linejoin="miter"
         stroke="#000000"
         stroke-opacity="1"
         stroke-miterlimit="10"
         d="M 4.103286,1.730714 C 4.127839,1.962857 4.199268,2.201696 4.317571,2.445 4.435875,2.690536 4.681411,3.029821 4.891232,3.284286"
         transform="matrix(1.75,0,0,-1.75,0.538,18.06)"
         id="path954" />
    </g>
    <g
       clip-path="url(#clip-10)"
       id="g960">
      <path
         fill="none"
         stroke-width="0.24907"
         stroke-linecap="round"
         stroke-linejoin="miter"
         stroke="#000000"
         stroke-opacity="1"
         stroke-miterlimit="10"
         d="m 4.103286,1.739643 0.970982,0.09375"
         transform="matrix(1.75,0,0,-1.75,0.538,18.06)"
         id="path958" />
    </g>
    <g
       clip-path="url(#clip-11)"
       id="g964">
      <path
         fill="none"
         stroke-width="0.24907"
         stroke-linecap="round"
         stroke-linejoin="miter"
         stroke="#000000"
         stroke-opacity="1"
         stroke-miterlimit="10"
         d="M 5.065339,1.833393 5.5765,1.853482"
         transform="matrix(1.75,0,0,-1.75,0.538,18.06)"
         id="path962" />
    </g>
    <g
       clip-path="url(#clip-12)"
       id="g968">
      <path
         fill="none"
         stroke-width="0.24907"
         stroke-linecap="round"
         stroke-linejoin="miter"
         stroke="#000000"
         stroke-opacity="1"
         stroke-miterlimit="10"
         d="M 8.35775,1.331161 C 8.219357,1.458393 8.10775,1.527589 7.978286,1.8825 7.848821,2.239643 7.743911,2.500804 7.538554,3.232946 7.447036,3.523125 7.355518,4.032054 7.344357,4.614643 c -0.00893,0.582589 0.03125,1.3125 0.122768,2.1875"
         transform="matrix(1.75,0,0,-1.75,0.538,18.06)"
         id="path966" />
    </g>
    <g
       clip-path="url(#clip-13)"
       id="g972">
      <path
         fill="none"
         stroke-width="0.24907"
         stroke-linecap="round"
         stroke-linejoin="miter"
         stroke="#000000"
         stroke-opacity="1"
         stroke-miterlimit="10"
         d="M 7.518464,6.864643 6.967125,6.505268 Z m 0,0"
         transform="matrix(1.75,0,0,-1.75,0.538,18.06)"
         id="path970" />
    </g>
    <g
       clip-path="url(#clip-14)"
       id="g976">
      <path
         fill="none"
         stroke-width="0.24907"
         stroke-linecap="square"
         stroke-linejoin="miter"
         stroke="#000000"
         stroke-opacity="1"
         stroke-miterlimit="10"
         d="m 9.605518,1.371339 c 0,-0.676339 -0.549107,-1.225446 -1.227679,-1.225446 -0.678571,0 -1.227678,0.549107 -1.227678,1.225446 0,0.678572 0.549107,1.227679 1.227678,1.227679 0.678572,0 1.227679,-0.549107 1.227679,-1.227679 z m 0,0"
         transform="matrix(1.75,0,0,-1.75,0.538,18.06)"
         id="path974" />
    </g>
    <g
       clip-path="url(#clip-15)"
       id="g980">
      <path
         fill="none"
         stroke-width="0.24907"
         stroke-linecap="square"
         stroke-linejoin="miter"
         stroke="#000000"
         stroke-opacity="1"
         stroke-miterlimit="10"
         d="m 2.578732,1.35125 c 0,-0.676339 -0.549107,-1.227679 -1.227678,-1.227679 -0.67634,0 -1.225447,0.55134 -1.225447,1.227679 0,0.678571 0.549107,1.227679 1.225447,1.227679 0.678571,0 1.227678,-0.549108 1.227678,-1.227679 z m 0,0"
         transform="matrix(1.75,0,0,-1.75,0.538,18.06)"
         id="path978" />
    </g>
    <g
       clip-path="url(#clip-16)"
       id="g984">
      <path
         fill="none"
         stroke-width="0.24907"
         stroke-linecap="round"
         stroke-linejoin="miter"
         stroke="#000000"
         stroke-opacity="1"
         stroke-miterlimit="10"
         d="M 3.121143,1.719554 2.630071,1.679375"
         transform="matrix(1.75,0,0,-1.75,0.538,18.06)"
         id="path982" />
    </g>
  </g>
</svg>
